<mxfile host="app.diagrams.net" modified="2024-03-13T11:36:45.592Z" agent="Mozilla/5.0 (Windows NT 10.0; Win64; x64) AppleWebKit/537.36 (KHTML, like Gecko) Chrome/122.0.0.0 Safari/537.36" version="24.0.5" etag="OYI1cjRk3KjWTHkdRCCF" type="github">
  <diagram name="PÃ¡gina-1" id="QmV4ie-TLg8mb3uPYE5h">
    <mxGraphModel>
      <root>
        <mxCell id="0" />
        <mxCell id="1" parent="0" />
      </root>
    </mxGraphModel>
  </diagram>
</mxfile>
